<svg xmlns="http://www.w3.org/2000/svg" viewBox="0 0 120 120"><defs><style>.cls-1{fill:#ccc;}.cls-2{fill:none;stroke:#ccc;stroke-linecap:round;stroke-linejoin:round;stroke-width:4px;}</style></defs><title>资源 52</title><g id="图层_2" data-name="图层 2"><g id="图层_1-2" data-name="图层 1"><path class="cls-1" d="M90,3a27,27,0,0,1,27,27V90a27,27,0,0,1-27,27H30A27,27,0,0,1,3,90V30A27,27,0,0,1,30,3H90m0-3H30A30.09,30.09,0,0,0,0,30V90a30.09,30.09,0,0,0,30,30H90a30.09,30.09,0,0,0,30-30V30A30.09,30.09,0,0,0,90,0Z"/><line class="cls-2" x1="22.5" y1="60" x2="97.5" y2="60"/><line class="cls-2" x1="60" y1="97.5" x2="60" y2="22.5"/></g></g></svg>