<svg xmlns="http://www.w3.org/2000/svg" viewBox="0 0 82 82"><defs><style>.cls-1{fill:none;stroke:#fff;stroke-miterlimit:10;stroke-width:2px;}.cls-2{fill:#fff;}</style></defs><title>资源 42</title><g id="图层_2" data-name="图层 2"><g id="图层_1-2" data-name="图层 1"><circle class="cls-1" cx="41" cy="41" r="40"/><path class="cls-2" d="M60.57,58.67,43.11,41.22,60.53,23.8a1.48,1.48,0,0,0-1-2.56,1.43,1.43,0,0,0-1,.43h0L41,39.12,23.56,21.66h0a1.5,1.5,0,0,0-1-.42A1.49,1.49,0,0,0,21,22.72a1.51,1.51,0,0,0,.43,1h0L38.92,41.22,21.59,58.54a1.48,1.48,0,0,0,.89,2.66,1.46,1.46,0,0,0,1.06-.45l0,0L41,43.31,58.47,60.76a1.43,1.43,0,0,0,1.05.44A1.48,1.48,0,0,0,61,59.72a1.52,1.52,0,0,0-.43-1Z"/></g></g></svg>