<svg xmlns="http://www.w3.org/2000/svg" viewBox="0 0 268.06 327"><defs><style>.cls-1{fill:#c5c8d0;}.cls-2{fill:#fff;}</style></defs><title>资源 12</title><g id="图层_2" data-name="图层 2"><g id="图层_1-2" data-name="图层 1"><path class="cls-1" d="M0,0V327H268.06V0Z"/><path class="cls-2" d="M221.69,242c-18.69,10.11-40.79,12.88-61.76,14.65a300.33,300.33,0,0,1-55.45-.25c-17.56-1.64-35.24-3.79-51.66-10.73-1.51-.64-3-1.52-4.55-2.15-.88-.38-1.64-1-2.52-1.39s-.89-.89-.26-1.52a85.93,85.93,0,0,1,11-9.34c12.13-8.59,25.39-14.91,39.16-20.34,1.77-.63,3.54-1.26,5.18-2a12.83,12.83,0,0,0,8.08-10.86,18.52,18.52,0,0,0-.13-5.31,14,14,0,0,0-4.16-8A77.59,77.59,0,0,1,90,161.9c-.5-1-.88-1.51-2.14-1.26a7.54,7.54,0,0,1-8.34-5c-1-3-1.89-6.19-2.78-9.22-1-3.79.76-8.47,5.06-9.48.88-.25.63-.63.5-1.26-1.4-11.24-1.06-22.24,2.94-32.94C91.51,85,104,74.27,122.33,70.48c13.51-2.78,26.65-1.14,38.78,5.68,11.62,6.57,18.82,16.55,22.61,29.18A70.42,70.42,0,0,1,185.48,136c-.12.63-.25,1.14.51,1.52,3.28,1.39,4.67,5.3,3.91,9-.75,3-1.64,6.07-2.65,9-1.39,3.92-4,5.81-8.34,5.56-.75,0-.75.38-1,.88A87.69,87.69,0,0,1,166,181.57a26.68,26.68,0,0,1-2.4,2.91,13.89,13.89,0,0,0-4.42,8.71,22.45,22.45,0,0,0,.13,8.72,10.5,10.5,0,0,0,7.32,7.83,190,190,0,0,1,39.66,18.19A86,86,0,0,1,222,240.05c1.39,1.14,1.39,1.14-.26,2Z"/></g></g></svg>