<svg xmlns="http://www.w3.org/2000/svg" viewBox="0 0 36 36"><defs><style>.cls-1{fill:#00a0f9;}</style></defs><title>资源 132</title><g id="图层_2" data-name="图层 2"><g id="图层_1-2" data-name="图层 1"><path class="cls-1" d="M18,0,6.77,9H2.27A2.25,2.25,0,0,0,0,11.23v13.5A2.26,2.26,0,0,0,2.27,27h4.5L18,36a2.23,2.23,0,0,0,2.23-2.27V2.27A2.23,2.23,0,0,0,18,0Zm0,33.12L6.77,24.73H3.38a1.11,1.11,0,0,1-1.11-1.11V12.38a1.11,1.11,0,0,1,1.11-1.11H6.77L18,3Zm6.73-30.2V5.33a13.42,13.42,0,0,1,0,25.34v2.41a15.72,15.72,0,0,0,0-30.16ZM29.23,18A9,9,0,0,0,22.5,9.32v2.34a6.72,6.72,0,0,1,0,12.68v2.34A9,9,0,0,0,29.23,18Z"/></g></g></svg>