<svg xmlns="http://www.w3.org/2000/svg" viewBox="0 0 40.17 40"><defs><style>.cls-1{fill:#00acee;}</style></defs><title>资源 22</title><g id="图层_2" data-name="图层 2"><g id="图层_1-2" data-name="图层 1"><path class="cls-1" d="M39.27,17.7,22.14.77a2.15,2.15,0,0,0-.71-.49,3.15,3.15,0,0,0-3.52.61L.9,17.7A3,3,0,0,0,.9,22l.42.41,4.15,1.28V35.76A4.27,4.27,0,0,0,9.76,40h7.71V31.55A.55.55,0,0,1,18,31h3.89a.56.56,0,0,1,.56.56V40h7.71a4.27,4.27,0,0,0,4.29-4.24V23.7l4.37-1.28.49-.48a2.63,2.63,0,0,0,.49-.66A3,3,0,0,0,39.27,17.7Zm-1.75,2.52L32,21.84V35.76a1.76,1.76,0,0,1-1.77,1.76H25V31.74a3.19,3.19,0,0,0-3.15-3.22H18A3.07,3.07,0,0,0,15,31.58v5.94H9.74A1.77,1.77,0,0,1,8,35.77V21.86L2.65,20.23a.56.56,0,0,1,0-.78l17-16.8a.52.52,0,0,1,.39-.17.54.54,0,0,1,.4.17l17,16.8a.54.54,0,0,1,0,.77Z"/></g></g></svg>