<svg xmlns="http://www.w3.org/2000/svg" viewBox="0 0 36.35 40"><defs><style>.cls-1{fill:#555;}</style></defs><title>资源 23</title><g id="图层_2" data-name="图层 2"><g id="图层_1-2" data-name="图层 1"><path class="cls-1" d="M15.38,20.64a6.59,6.59,0,0,1-1.77-4.55,6.11,6.11,0,0,1,5.84-6.33A6.11,6.11,0,0,1,25.3,16.1a6.62,6.62,0,0,1-1.76,4.54A9.4,9.4,0,0,1,28,28.78a1.4,1.4,0,0,1-1.34,1.46,1.42,1.42,0,0,1-1.36-1.46,6.11,6.11,0,0,0-5.85-6.34,6.11,6.11,0,0,0-5.84,6.34,1.35,1.35,0,1,1-2.7,0,9.39,9.39,0,0,1,4.47-8.14ZM6.93,21H1.39a1.5,1.5,0,0,1,0-3H6.92a1.5,1.5,0,0,1,0,3Zm0-6H1.39a1.5,1.5,0,0,1,0-3H6.92a1.5,1.5,0,0,1,0,3Zm0,13H1.39a1.5,1.5,0,0,1,0-3H6.92a1.5,1.5,0,0,1,0,3ZM31.35,40H7.6C5,40,2.81,37.67,2.35,34.8V31.22c.46-.81,1.06-1.47,1.81-1.47s1.19,1.47,1.19,1.47v3.52A2.19,2.19,0,0,0,7.46,37H31.25a2.18,2.18,0,0,0,2.1-2.26V5.26A2.18,2.18,0,0,0,31.25,3H7.6s-2.09.94-2.25,2.2V8.78a1.2,1.2,0,0,1-1.19,1.46,1.31,1.31,0,0,1-1-.44,6.81,6.81,0,0,0-.84-1V5.2C2.81,2.33,5,0,7.6,0H31.35a5.11,5.11,0,0,1,5,5.2V34.8a5.11,5.11,0,0,1-5,5.2ZM19.45,12.68a3.29,3.29,0,0,0-3.14,3.42,3.29,3.29,0,0,0,3.14,3.41A3.29,3.29,0,0,0,22.6,16.1a3.29,3.29,0,0,0-3.15-3.42Z"/></g></g></svg>