<svg xmlns="http://www.w3.org/2000/svg" viewBox="0 0 40 39"><defs><style>.cls-1{fill:#555;}</style></defs><title>资源 24-active</title><g id="图层_2" data-name="图层 2"><g id="图层_1-2" data-name="图层 1"><path class="cls-1" d="M14.1,2.37H2.64A2.65,2.65,0,0,0,0,5V16.47a2.65,2.65,0,0,0,2.64,2.65H14a2.75,2.75,0,0,0,2.77-2.78V5A2.64,2.64,0,0,0,14.1,2.37ZM13.6,16H3.14V5.51H13.6Z"/><path class="cls-1" d="M27.44.77,19.33,8.88a2.64,2.64,0,0,0,0,3.73l8.11,8.11a2.66,2.66,0,0,0,3.73,0l8-8a2.77,2.77,0,0,0,0-3.93l-8-8A2.64,2.64,0,0,0,27.44.77Zm9.26,10-7.4,7.4-7.4-7.4,7.4-7.4Z"/><path class="cls-1" d="M14.1,22.25H2.64A2.65,2.65,0,0,0,0,24.89V36.36A2.65,2.65,0,0,0,2.64,39H14a2.75,2.75,0,0,0,2.77-2.78V24.89A2.64,2.64,0,0,0,14.1,22.25Zm-.5,13.61H3.14V25.39H13.6Z"/><path class="cls-1" d="M35,22.25H23.57a2.65,2.65,0,0,0-2.64,2.64V36.36A2.65,2.65,0,0,0,23.57,39H34.9a2.75,2.75,0,0,0,2.77-2.78V24.89A2.64,2.64,0,0,0,35,22.25Zm-.5,13.61H24.07V25.39H34.53Z"/></g></g></svg>