<svg xmlns="http://www.w3.org/2000/svg" viewBox="0 0 34.26 40"><defs><style>.cls-1{fill:#555;}</style></defs><title>资源 25i</title><g id="图层_2" data-name="图层 2"><g id="图层_1-2" data-name="图层 1"><path class="cls-1" d="M31.43,40H2.74a1.5,1.5,0,0,1,0-3H30.33c1.43-5.16,1.31-9.37-.37-12.51a9.53,9.53,0,0,0-4.49-4.23C18.77,26.1,11.54,23.2,8,20.33c-6.77,3.85-4.68,12.91-4.65,13a1.51,1.51,0,0,1-1.08,1.82,1.47,1.47,0,0,1-1.78-1.1c-1-4.24-.85-13.21,7.11-16.88a1.47,1.47,0,0,1,1.61.27c.31.29,7.72,7,15,0a1.48,1.48,0,0,1,1.39-.36,12.27,12.27,0,0,1,7,5.9c2.22,4.1,2.33,9.47.32,16A1.46,1.46,0,0,1,31.43,40Z"/><path class="cls-1" d="M16.75,19A9.64,9.64,0,0,1,7,9.51,9.64,9.64,0,0,1,16.75,0a9.65,9.65,0,0,1,9.76,9.51A9.65,9.65,0,0,1,16.75,19Zm0-16.19A6.77,6.77,0,0,0,9.9,9.51a6.77,6.77,0,0,0,6.85,6.68,6.77,6.77,0,0,0,6.86-6.68A6.77,6.77,0,0,0,16.75,2.83Z"/></g></g></svg>