<svg xmlns="http://www.w3.org/2000/svg" viewBox="0 0 425.96 283.85"><defs><style>.cls-1{fill:#e4f0f7;}.cls-2{fill:#f4f8f9;}.cls-3{fill:#c0e4f9;}.cls-4,.cls-6{fill:#fff;}.cls-5,.cls-7,.cls-8{fill:none;}.cls-5,.cls-6,.cls-7,.cls-8{stroke:#3ca4dd;}.cls-5,.cls-6,.cls-7{stroke-linecap:round;stroke-width:4px;}.cls-5,.cls-6{stroke-linejoin:round;}.cls-7,.cls-8{stroke-miterlimit:10;}.cls-8{stroke-width:3px;}.cls-9{fill:#3ca4dd;}.cls-10{fill:#39c;}</style></defs><title>资源 112</title><g id="图层_2" data-name="图层 2"><g id="图层_1-2" data-name="图层 1"><rect class="cls-1" x="92.83" y="254.7" width="219.6" height="29.15" rx="14.58"/><rect class="cls-1" x="351.63" y="227.28" width="38" height="30" rx="15"/><rect class="cls-1" x="61.63" y="225.28" width="282" height="30" rx="15"/><rect class="cls-1" x="20.63" y="191.28" width="38" height="30" rx="15" transform="translate(79.25 412.55) rotate(-180)"/><rect class="cls-1" x="55.63" y="154.28" width="329" height="30" rx="15" transform="translate(440.25 338.55) rotate(180)"/><rect class="cls-1" x="66.63" y="191.28" width="294" height="30" rx="15" transform="translate(427.25 412.55) rotate(180)"/><ellipse class="cls-2" cx="212.72" cy="124.75" rx="124.76" ry="121.27" transform="translate(77.83 331.19) rotate(-87.23)"/><path class="cls-3" d="M121.41,98.67s-11,32.18-15.7,40.13-15.42,19.43-15.42,19.43-1.15,38.82,43.77,68.14c0,0,13.52-21.28,18.75-28.25S156.3,172,156.3,172l11.58-15.21.5-15.42-3.49-12.43,3.62-44.17Z"/><path class="cls-3" d="M283.63,93.28s12,30,13,42c15,6,28,31,28,31s-8.08,37.68-53,67c5.41-9.89-1.42-19.43-8-26-11-11-6.61-30.33-6.61-30.33l-11.57-15.21-.5-15.42,3.48-12.43-2.8-46.61Z"/><path class="cls-4" d="M241.63,17.28s93,26,84,147c0,0,5-1,5.46-49.28C331.8,42.14,250,19.18,241.63,17.28Z"/><path class="cls-5" d="M291.37,37.74A123.9,123.9,0,0,1,165.89,245.25"/><path class="cls-6" d="M264.34,18.56a123.89,123.89,0,0,1,19.28,12.52"/><path class="cls-5" d="M157,241.72A123.9,123.9,0,0,1,253.68,13.6"/><path class="cls-7" d="M164.16,44.74S157.56,62.85,138,59.4"/><path class="cls-7" d="M228.72,44.38s12.35,14.79,29.61,4.91"/><path class="cls-7" d="M186.36,128.33s-5-29.6,19.83-29.66c23.13,0,18.17,29.66,18.17,29.66"/><path class="cls-6" d="M109.09,100.64s54.23-15.85,70-16.14"/><path class="cls-6" d="M301.5,97.53S246.69,83.8,230.9,84.12"/><path class="cls-7" d="M90,165s1.36-16.39,10.46-20.94c7-3.49,10.47-5.23,10.47-17.44s12.21-27.92,12.21-27.92"/><path class="cls-7" d="M281.91,95.18s12.21,15.71,12.21,27.92,3.49,14,10.47,17.44C313.69,145.09,322,165,322,165"/><path class="cls-7" d="M168.51,88.21s0,17.44-3.49,33.14c-2.42,10.91,7,19.19,3.49,31.41s-12.21,14-12.21,26.17,1.74,12.21-8.72,27.91c-3.06,4.59-12.22,5.23-8.73,22.68"/><path class="cls-7" d="M245.81,87.77s-.56,17.43,2.42,33.24c2.08,11-7.59,19-4.49,31.27s11.76,14.35,11.36,26.55S253,191,262.93,207c2.91,4.69,12,5.62,8,23"/><circle class="cls-8" cx="27.86" cy="169.21" r="5.07"/><circle class="cls-9" cx="403.26" cy="155.95" r="5.07"/><circle class="cls-9" cx="48.79" cy="115.64" r="5.07"/><circle class="cls-10" cx="67.79" cy="276.64" r="5.07"/><circle class="cls-8" cx="364.79" cy="120.64" r="5.07"/><circle class="cls-8" cx="374.32" cy="209.34" r="6.52"/><polygon class="cls-8" points="30.53 262.49 24.18 253.35 13.9 249.08 23.04 242.73 27.3 232.45 33.66 241.59 43.94 245.85 34.8 252.21 30.53 262.49"/><polygon class="cls-8" points="409.45 208.4 403.1 199.26 392.82 195 401.96 188.64 406.22 178.36 412.58 187.5 422.86 191.77 413.72 198.12 409.45 208.4"/><polygon class="cls-9" points="11.67 148.26 7.21 141.85 0 138.86 6.41 134.4 9.4 127.19 13.86 133.6 21.07 136.59 14.66 141.05 11.67 148.26"/><polygon class="cls-9" points="345.94 281.65 342.19 276.25 336.12 273.74 341.52 269.98 344.04 263.92 347.79 269.31 353.86 271.83 348.46 275.58 345.94 281.65"/></g></g></svg>