<svg xmlns="http://www.w3.org/2000/svg" viewBox="0 0 38 32"><defs><style>.cls-1{fill:#fff;}</style></defs><title>资源 32</title><g id="图层_2" data-name="图层 2"><g id="图层_1-2" data-name="图层 1"><path class="cls-1" d="M12.18,10.19A13,13,0,0,1,27.6.27,12.78,12.78,0,0,1,37.73,15.38,13,13,0,0,1,22.31,25.3,12.79,12.79,0,0,1,12.18,10.19ZM26.84,3.44A9.67,9.67,0,0,0,15.41,10.8,9.48,9.48,0,0,0,22.93,22a9.66,9.66,0,0,0,11.43-7.36,9.49,9.49,0,0,0-7.52-11.2ZM1.79,28.5H26.33a1.75,1.75,0,1,1,0,3.5H1.79a1.77,1.77,0,0,1-1.26-.51A1.73,1.73,0,0,1,0,30.25,1.77,1.77,0,0,1,1.79,28.5Zm0-11.32H8.93a1.75,1.75,0,1,1,0,3.5H1.79a1.73,1.73,0,0,1-1.26-.51A1.7,1.7,0,0,1,0,18.93a1.77,1.77,0,0,1,1.79-1.75Zm0-11.68H8.93a1.75,1.75,0,1,1,0,3.5H1.79A1.73,1.73,0,0,1,.53,8.49,1.7,1.7,0,0,1,0,7.25,1.77,1.77,0,0,1,1.79,5.5Z"/><path class="cls-1" d="M32.44,21.49l5.29,7.79A1.56,1.56,0,0,1,37,31.59l-.23.11a2.19,2.19,0,0,1-2.72-.62l-5.29-7.79A1.56,1.56,0,0,1,29.49,21l.23-.12a2.21,2.21,0,0,1,2.72.63Z"/></g></g></svg>