<svg xmlns="http://www.w3.org/2000/svg" viewBox="0 0 32.65 29.01"><defs><style>.cls-1{fill:#fff;}</style></defs><title>资源 310</title><g id="图层_2" data-name="图层 2"><g id="图层_1-2" data-name="图层 1"><path class="cls-1" d="M16.33,29C11,29,5.25,27.31,5,24.12A.88.88,0,0,1,5,24V13.67a.91.91,0,1,1,1.81,0V23.82s0,.08,0,.12c0,1.37,3.63,3.28,9.5,3.28s9.49-1.91,9.5-3.28V13.66a.9.9,0,1,1,1.8,0V24c-.11,3.25-5.89,5-11.3,5Zm15.23-3.52a.9.9,0,0,1-.9-.9V13.87a.9.9,0,1,1,1.8,0V24.61a.9.9,0,0,1-.9.9Z" transform="translate(0 -0.02)"/><path class="cls-1" d="M16.33,19.13a3.34,3.34,0,0,1-1.59-.38L.94,11A1.66,1.66,0,0,1,0,9.58,1.67,1.67,0,0,1,.94,8.14L14.74.4a3.5,3.5,0,0,1,3.18,0l13.8,7.74a1.68,1.68,0,0,1,.93,1.44A1.68,1.68,0,0,1,31.72,11l-13.8,7.74a3.22,3.22,0,0,1-1.59.38ZM2.07,9.58l13.55,7.6a1.73,1.73,0,0,0,1.41,0l13.55-7.6L17,2a1.73,1.73,0,0,0-1.41,0L2.07,9.58Z" transform="translate(0 -0.02)"/></g></g></svg>