<svg xmlns="http://www.w3.org/2000/svg" viewBox="0 0 30.99 26.37"><defs><style>.cls-1{fill:#fff;}</style></defs><title>资源 412</title><g id="图层_2" data-name="图层 2"><g id="图层_1-2" data-name="图层 1"><path class="cls-1" d="M23.73,5.28a1.32,1.32,0,0,0,0,2.64h4a1.32,1.32,0,1,0,0-2.64Z"/><path class="cls-1" d="M22.41,2.64H29A1.32,1.32,0,1,0,29,0h-6.6a1.32,1.32,0,0,0,0,2.64Z"/><path class="cls-1" d="M30.41,10.78h0a1.33,1.33,0,0,0-1.84.35l-6,8.88a11.87,11.87,0,0,0-5.94-5.81,7.91,7.91,0,1,0-9.51,0A11.86,11.86,0,0,0,0,25.05v1.32H23.73V25.05a11.75,11.75,0,0,0-.2-2,1.3,1.3,0,0,0,.33-.29l6.9-10.18A1.32,1.32,0,0,0,30.41,10.78ZM6.59,7.91a5.28,5.28,0,1,1,5.28,5.28A5.28,5.28,0,0,1,6.59,7.91ZM2.73,23.74a9.23,9.23,0,0,1,18.27,0Z"/></g></g></svg>