<svg xmlns="http://www.w3.org/2000/svg" viewBox="0 0 24.34 29.2"><defs><style>.cls-1{fill:#fff;}</style></defs><title>资源 300</title><g id="图层_2" data-name="图层 2"><g id="图层_1-2" data-name="图层 1"><path class="cls-1" d="M24.32,28.28c-.44-1.93-3.22-6-8-7.59A10.79,10.79,0,0,0,12.17,0,10.78,10.78,0,0,0,8,20.67c-4.78,1.61-7.56,5.67-8,7.6a.75.75,0,0,0,.57.91.5.5,0,0,0,.17,0,.77.77,0,0,0,.75-.6c.45-2,4.31-7.08,10.68-7.08S22.4,26.58,22.85,28.6a.78.78,0,0,0,.75.6.5.5,0,0,0,.17,0,.75.75,0,0,0,.55-.9ZM12.17,1.53a9.19,9.19,0,0,1,9.13,9.23c0,.16,0,.34,0,.5-2.31-.11-4.18-1.35-5.73-3.85A.77.77,0,0,0,14.92,7a.84.84,0,0,0-.65.32,7.18,7.18,0,0,1-5.93,3.41,6.74,6.74,0,0,1-5.06-2,9.14,9.14,0,0,1,8.89-7.24ZM3,10.76v-.11a9.12,9.12,0,0,0,5.32,1.66,8.59,8.59,0,0,0,6.5-3.18,8.22,8.22,0,0,0,6.2,3.67,9.11,9.11,0,0,1-18-2Z"/></g></g></svg>