<svg xmlns="http://www.w3.org/2000/svg" viewBox="0 0 32.29 30.97"><defs><style>.cls-1{fill:#fff;stroke:#fff;stroke-miterlimit:10;stroke-width:0.75px;}</style></defs><title>资源 330</title><g id="图层_2" data-name="图层 2"><g id="图层_1-2" data-name="图层 1"><path class="cls-1" d="M17.77,18.75l-3.94,0-.52,8,2.48,2,2.76-2ZM15.83,27l-1.13-.91.39-6h1.46l.58,6Z"/><path class="cls-1" d="M15.9.38a8.95,8.95,0,0,0,0,17.89c5.48,0,8.88-3.43,8.88-8.95A8.92,8.92,0,0,0,15.9.38Zm0,16.53a7.59,7.59,0,1,1,7.53-7.59C23.43,11.6,22.7,16.91,15.9,16.91Z"/><path class="cls-1" d="M.39,30.6v-.67C.29,23.51,4.26,19.34,12.16,17.51l.3,1.32c-7,1.62-10.53,5-10.73,10.41H30.79c-.29-5-3.54-8.31-10.74-10.32l.11-1.31c8.08,2.26,11.75,6.28,11.75,12.31v.68Z"/></g></g></svg>