<svg xmlns="http://www.w3.org/2000/svg" viewBox="0 0 31.85 31.85"><defs><style>.cls-1{fill:#fff;}</style></defs><title>资源 290</title><g id="图层_2" data-name="图层 2"><g id="图层_1-2" data-name="图层 1"><path class="cls-1" d="M20.67,24.1l-4.74-3.46L11.19,24.1a1,1,0,0,1-1.19,0A1,1,0,0,1,9.63,23l1.8-5.58L6.69,13.94a1,1,0,0,1,.6-1.84h5.86L15,6.51a1.06,1.06,0,0,1,1-.65,1,1,0,0,1,1,.67L18.7,12.1h5.86a1,1,0,0,1,1,.7A1,1,0,0,1,25.16,14L20.42,17.4,22.23,23a1,1,0,0,1-.37,1.13.93.93,0,0,1-.6.18,1,1,0,0,1-.59-.19Zm-4.15-5.52,2.81,2-1.07-3.31a1,1,0,0,1,.37-1.13l2.81-2H18a1,1,0,0,1-1-.7l-1.07-3.3-1.08,3.3a1,1,0,0,1-1,.7H10.41l2.81,2a1,1,0,0,1,.37,1.13l-1.07,3.31,2.81-2.05a1,1,0,0,1,1.19,0Z"/><path class="cls-1" d="M15.93,0A15.93,15.93,0,1,0,31.85,15.93,15.93,15.93,0,0,0,15.93,0Zm0,29.45A13.52,13.52,0,0,1,2.41,15.93h0A13.52,13.52,0,1,1,15.93,29.45Z"/></g></g></svg>