<svg xmlns="http://www.w3.org/2000/svg" viewBox="0 0 31.99 29.93"><defs><style>.cls-1{fill:#fff;}</style></defs><title>资源 320</title><g id="图层_2" data-name="图层 2"><g id="图层_1-2" data-name="图层 1"><path class="cls-1" d="M15,10H9a1,1,0,0,0-.9.48,1,1,0,0,0,0,1A1,1,0,0,0,9,12h6a1,1,0,1,0,0-2m0-5H9a1,1,0,0,0-.9.48,1,1,0,0,0,0,1A1,1,0,0,0,9,7h6a1,1,0,1,0,0-2m0,10H9a1,1,0,0,0,0,2h6a1,1,0,0,0,0-2m0,5H9a1,1,0,0,0-.87.5,1,1,0,0,0,0,1A1,1,0,0,0,9,22h6a1,1,0,1,0,0-2"/><path class="cls-1" d="M31,27.93H30V13a3,3,0,0,0-3-3H25a1,1,0,1,0,0,2h2a1,1,0,0,1,1,1v15H22V3a3,3,0,0,0-3-3H5A3,3,0,0,0,2,3V27.93H1a1,1,0,0,0-.9.49,1,1,0,0,0,0,1,1,1,0,0,0,.9.49H31a1,1,0,1,0,0-2ZM4,27.93V3A1,1,0,0,1,5,2H19a1,1,0,0,1,1,1V27.93Z"/></g></g></svg>