<svg xmlns="http://www.w3.org/2000/svg" viewBox="0 0 23.19 29"><defs><style>.cls-1{fill:#fff;}</style></defs><title>资源 350</title><g id="图层_2" data-name="图层 2"><g id="图层_1-2" data-name="图层 1"><path class="cls-1" d="M8,28.69a1,1,0,0,1-.52-.16.91.91,0,0,1-.38-.74V24.43H5.41v3.29a.94.94,0,0,1-.38.74.91.91,0,0,1-.83.12A6.33,6.33,0,0,1,0,22.67a6.2,6.2,0,0,1,3.06-5.36v-6A6.26,6.26,0,0,1,0,5.94,6.38,6.38,0,0,1,4.19.05.91.91,0,0,1,5,.17a.9.9,0,0,1,.37.74V4.27H7.1V.91A.94.94,0,0,1,7.48.17.91.91,0,0,1,8.31.05,6.29,6.29,0,0,1,12.5,5.94a6.45,6.45,0,0,1-3.06,5.42v6A6.23,6.23,0,0,1,8.31,28.63a.62.62,0,0,1-.31.06ZM4.5,22.6H8a.92.92,0,0,1,.92.92V26.3a4.41,4.41,0,0,0-.74-7.53A.88.88,0,0,1,7.66,18V10.84a.88.88,0,0,1,.5-.81,4.65,4.65,0,0,0,2.53-4.09A4.37,4.37,0,0,0,8.9,2.4V5.19A.91.91,0,0,1,8,6.1H4.5a.92.92,0,0,1-.92-.91V2.43A4.51,4.51,0,0,0,1.81,5.94a4.45,4.45,0,0,0,2.53,4,.9.9,0,0,1,.52.82v7.11a.94.94,0,0,1-.52.83,4.43,4.43,0,0,0-2.53,4A4.34,4.34,0,0,0,3.6,26.21V23.52a.91.91,0,0,1,.9-.92ZM20.76,29H16.18a2.43,2.43,0,0,1-2.43-2.44V16.63A2.46,2.46,0,0,1,16,14.19V8.45L14.6,5.59a.91.91,0,0,1,0-.74L16.1,1a.88.88,0,0,1,.84-.57H20a.92.92,0,0,1,.84.57l1.52,3.81a.87.87,0,0,1,0,.74L20.89,8.45v5.76a2.43,2.43,0,0,1,2.3,2.43v9.93A2.42,2.42,0,0,1,20.76,29ZM16.18,16a.64.64,0,0,0-.62.62v9.93a.62.62,0,0,0,.62.63h4.58a.64.64,0,0,0,.63-.63V16.64a.64.64,0,0,0-.63-.62H20a.91.91,0,0,1-.92-.9V8.23a.82.82,0,0,1,.1-.4l1.35-2.7L19.39,2.26H17.56L16.41,5.13l1.35,2.7a1,1,0,0,1,.1.4v6.88A.89.89,0,0,1,17,16h-.77Z"/></g></g></svg>