<svg xmlns="http://www.w3.org/2000/svg" viewBox="0 0 23.63 28.96"><defs><style>.cls-1{fill:#fff;}</style></defs><title>资源 360</title><g id="图层_2" data-name="图层 2"><g id="图层_1-2" data-name="图层 1"><path class="cls-1" d="M20.7,28.14H19a.93.93,0,1,1,0-1.85h1.7a1.08,1.08,0,0,0,1.08-1.07V11.37A1.08,1.08,0,0,0,20.7,10.3H2.93a1.07,1.07,0,0,0-1.08,1.07V25.22a1.07,1.07,0,0,0,1.08,1.07H4.41a.93.93,0,0,1,0,1.85H2.93A2.93,2.93,0,0,1,0,25.22V11.37A2.93,2.93,0,0,1,2.93,8.44H20.7a2.94,2.94,0,0,1,2.93,2.93V25.22a2.89,2.89,0,0,1-2.93,2.92Z"/><path class="cls-1" d="M16.18,28.14h-9a.93.93,0,0,1,0-1.85h9a.93.93,0,1,1,0,1.85Z"/><path class="cls-1" d="M18.41,10.26H5.22V2.41A2.4,2.4,0,0,1,7.63,0H16a2.4,2.4,0,0,1,2.41,2.41ZM7.07,8.41h9.48v-6A.57.57,0,0,0,16,1.85H7.63a.57.57,0,0,0-.56.56ZM5.93,22.78a.38.38,0,0,1-.38-.38V12.59a.38.38,0,0,1,.75,0v9.85a.35.35,0,0,1-.37.34Zm11.92,0a.37.37,0,0,1-.37-.38V12.59a.37.37,0,1,1,.74,0v9.85a.37.37,0,0,1-.37.34ZM17.52,29h-.08a.31.31,0,0,1-.29-.3V26.48a.31.31,0,0,1,.29-.3h.08a.32.32,0,0,1,.29.3v2.18a.27.27,0,0,1-.29.3ZM5.81,29H5.74a.32.32,0,0,1-.3-.3V26.48a.32.32,0,0,1,.3-.3h.07a.32.32,0,0,1,.3.3v2.18a.29.29,0,0,1-.3.3Z"/></g></g></svg>