<svg xmlns="http://www.w3.org/2000/svg" viewBox="0 0 29.84 29.7"><defs><style>.cls-1{fill:#fff;}</style></defs><title>资源 380</title><g id="图层_2" data-name="图层 2"><g id="图层_1-2" data-name="图层 1"><path class="cls-1" d="M.59,10.15,12,16.85a5.68,5.68,0,0,0,3,.84,5.82,5.82,0,0,0,3-.84l11.37-6.7a1.08,1.08,0,0,0,0-1.86L17.65.83A4.81,4.81,0,0,0,15,0a4.89,4.89,0,0,0-2.7.83L.62,8.29a1.07,1.07,0,0,0,0,1.86ZM13.25,2.32a3.32,3.32,0,0,1,3.37,0l10.53,6.8L16.89,15.19a4,4,0,0,1-2.06.56,3.85,3.85,0,0,1-2.06-.56l-10.23-6ZM.5,15.84,12,23a5.68,5.68,0,0,0,3,.84,5.82,5.82,0,0,0,3-.84l11.46-7.17a.91.91,0,0,0,.46-.74.88.88,0,0,0-1.4-.75L17,21.52a4,4,0,0,1-2.06.57,3.86,3.86,0,0,1-2.06-.57L1.4,14.25A.88.88,0,0,0,0,15a1.11,1.11,0,0,0,.5.85Zm27.94,4.37L17,27.38a4,4,0,0,1-2.06.56,3.85,3.85,0,0,1-2.06-.56L1.4,20.21A.88.88,0,0,0,0,21a.82.82,0,0,0,.46.75l11.46,7.17a5.76,5.76,0,0,0,6,0L29.35,21.7a.93.93,0,0,0,.46-.75.86.86,0,0,0-1.37-.74Z"/></g></g></svg>