<svg xmlns="http://www.w3.org/2000/svg" viewBox="0 0 31.98 31.29"><defs><style>.cls-1{fill:#fff;stroke:#fff;stroke-miterlimit:10;stroke-width:0.5px;}</style></defs><title>资源 422</title><g id="图层_2" data-name="图层 2"><g id="图层_1-2" data-name="图层 1"><path class="cls-1" d="M31.56,20.62a.88.88,0,0,0-.72-.58l-4.95-1-2.53-4.43a.88.88,0,0,0-1.54,0l-2.45,4.43-5,1a.86.86,0,0,0-.68.62,1.13,1.13,0,0,0,.23.8l3.5,3.66-.62,5v.1a.87.87,0,0,0,.35.71.89.89,0,0,0,.92,0l4.62-2.16L27.3,30.9a1.15,1.15,0,0,0,.37,0,.94.94,0,0,0,.53-.18,1,1,0,0,0,.35-.51V29.9l-.65-5,3.45-3.64a.86.86,0,0,0,.19-.88Zm-5.2,3.49a.86.86,0,0,0-.24.58v.12l.51,3.92L23,27.06a.77.77,0,0,0-.37,0,.86.86,0,0,0-.39,0l-3.58,1.67.48-3.92a.17.17,0,0,0,0-.1.84.84,0,0,0-.23-.6l-2.76-2.84,3.91-.74a.92.92,0,0,0,.65-.53l2-3.35,1.95,3.42a.93.93,0,0,0,.69.46l3.82.72-2.71,2.88Z"/><path class="cls-1" d="M13.54.25A7.83,7.83,0,0,0,8.78,14l.53.33-.55.22A13.09,13.09,0,0,0,.25,26.57a3.66,3.66,0,0,0,3.66,3.66l9.88.12a.77.77,0,0,0,.62-.19.75.75,0,0,0,.26-.59.76.76,0,0,0-.84-.86L4,28.59a2.31,2.31,0,0,1-2-2,11.13,11.13,0,0,1,10.16-11h1.53a7.76,7.76,0,0,0,4.18-1.23l.43-.33a7.82,7.82,0,0,0,3-6A7.83,7.83,0,0,0,13.54.25Zm0,13.7a6.07,6.07,0,1,1,6.28-5.87A6.07,6.07,0,0,1,13.54,14Z"/></g></g></svg>