<svg xmlns="http://www.w3.org/2000/svg" viewBox="0 0 30.47 28.96"><defs><style>.cls-1{fill:#fff;}</style></defs><title>资源 402</title><g id="图层_2" data-name="图层 2"><g id="图层_1-2" data-name="图层 1"><path class="cls-1" d="M9.48,14.43A6.48,6.48,0,0,0,16,8V0H9.48A6.48,6.48,0,0,0,3,6.48V8a6.48,6.48,0,0,0,6.46,6.47ZM5.26,6.48A4.23,4.23,0,0,1,9.48,2.24h4.24V8A4.23,4.23,0,0,1,5.26,8ZM26.63,18.84H19.17a4.38,4.38,0,0,0-.52,0,3.85,3.85,0,0,0-3.54-2.36H3.83A3.84,3.84,0,0,0,0,20.36V29H30.47V22.68a3.85,3.85,0,0,0-3.84-3.84ZM2.24,20.36a1.6,1.6,0,0,1,1.59-1.6H15.11a1.6,1.6,0,0,1,1.6,1.6v6.35H2.24Zm26,6.36H19V21.1l.22,0h7.46a1.6,1.6,0,0,1,1.59,1.6Z"/><path class="cls-1" d="M22.9,17.74a5.26,5.26,0,0,0,5.26-5.25V6.09H22.9a5.26,5.26,0,0,0-5.24,5.26v1.14a5.25,5.25,0,0,0,5.24,5.25Zm-3-6.39a3,3,0,0,1,3-3h3v4.16a3,3,0,1,1-6,0Z"/></g></g></svg>