<svg xmlns="http://www.w3.org/2000/svg" viewBox="0 0 29.72 29.7"><defs><style>.cls-1{fill:#fff;}</style></defs><title>资源 340</title><g id="图层_2" data-name="图层 2"><g id="图层_1-2" data-name="图层 1"><path class="cls-1" d="M23.55,2a1,1,0,0,1-1-1,1,1,0,0,1,1-1h4.12a1,1,0,0,1,1,1V5.13a1,1,0,0,1-2,0V2.06H23.55ZM3,19.1v7.8a.7.7,0,0,0,.71.7H6.46a.69.69,0,0,0,.7-.7V19.1a.69.69,0,0,0-.7-.7H3.79a.73.73,0,0,0-.75.7Zm0-2.76H7.16A2.06,2.06,0,0,1,9.22,18.4v9.2a2.06,2.06,0,0,1-2.06,2.06H3A2.05,2.05,0,0,1,1,27.6V18.4A2.11,2.11,0,0,1,3,16.34ZM13.3,15V26.94a.68.68,0,0,0,.7.7h2.67a.69.69,0,0,0,.7-.7V15a.69.69,0,0,0-.7-.7H14a.66.66,0,0,0-.7.7Zm0-2.76h4.11a2.06,2.06,0,0,1,2.06,2.06V27.64a2.06,2.06,0,0,1-2.06,2.06H13.34a2.06,2.06,0,0,1-2.06-2.06V14.28a2,2,0,0,1,2-2Zm10.25-1.36v16a.69.69,0,0,0,.7.7h2.67a.69.69,0,0,0,.7-.7v-16a.68.68,0,0,0-.7-.7H24.25a.68.68,0,0,0-.7.7Zm0-2.76h4.12a2,2,0,0,1,2,2.06V27.6a2,2,0,0,1-2,2.06H23.55a2.06,2.06,0,0,1-2.06-2.06V10.21a2.06,2.06,0,0,1,2.06-2.06Zm-22,6a1,1,0,1,1-1-1.75L11.15,6.09l6,2L27,.22a1,1,0,0,1,1.44.17,1,1,0,0,1-.17,1.45l-10.69,8.5-6.22-2Z"/></g></g></svg>