<svg xmlns="http://www.w3.org/2000/svg" viewBox="0 0 750 150.4"><defs><style>.cls-1{fill:#00acee;}.cls-2,.cls-3,.cls-4{fill:#fff;}.cls-3{opacity:0.5;}.cls-4{opacity:0.43;}</style></defs><title>资源 112</title><g id="图层_2" data-name="图层 2"><g id="图层_1-2" data-name="图层 1"><rect class="cls-1" y="0.4" width="750" height="144"/><path class="cls-2" d="M0,71.44s68-44,172-9,120,41,195,24,137-39,219-14S750,85.12,750,85.12V148.4H0Z"/><path class="cls-3" d="M0,94.4s187-87,277-78c103.66,10.36,174.55,40.05,302,17,94-17,171,25,171,25l-.25,90H0Z"/><path class="cls-4" d="M750,12.4s-65-25-154-4c-251.87,59.43-328,40-413,8C109.28-11.36,0,37.12,0,37.12V150.4H749.75Z"/></g></g></svg>