<svg xmlns="http://www.w3.org/2000/svg" viewBox="0 0 28.31 138.12"><defs><style>.cls-1,.cls-2{fill:#00acee;}.cls-1{stroke:#00acee;stroke-miterlimit:10;stroke-width:0.23px;}</style></defs><title>资源 52</title><g id="图层_2" data-name="图层 2"><g id="图层_1-2" data-name="图层 1"><path class="cls-1" d="M27.52,27.59a13.73,13.73,0,0,0-1.29-4.23c-.12-.26-.26-.51-.4-.77h0a14.14,14.14,0,0,0-2.28-2.91h0c-.19-.19-.39-.38-.6-.56a14,14,0,0,0-5-2.82,7.3,7.3,0,0,0,1-.61,7.86,7.86,0,0,0,1-.85,8.62,8.62,0,0,0,0-12.2,8.54,8.54,0,0,0-6-2.52h-.21a8.62,8.62,0,0,0-6,14.72,7.94,7.94,0,0,0,1,.85,7.93,7.93,0,0,0,.94.61,14.09,14.09,0,0,0-5,2.82l-.6.56a14.14,14.14,0,0,0-2.28,2.91c-.14.26-.28.51-.41.77A14,14,0,0,0,.12,27.59a.86.86,0,0,0,.74,1h.22a.84.84,0,0,0,.67-.71,12.77,12.77,0,0,1,3.57-7.1,12.07,12.07,0,0,1,8.5-3.66h0a12,12,0,0,1,8.48,3.66,12.77,12.77,0,0,1,3.57,7.1.85.85,0,0,0,.67.71h.22A.86.86,0,0,0,27.52,27.59ZM13.8,15.64h-.05a7.2,7.2,0,0,1-6.87-5.26l0-.1a6.49,6.49,0,0,1-.19-1.54,6.64,6.64,0,0,1,.19-1.55l0-.1A7.37,7.37,0,0,1,13.8,1.57h0a7.39,7.39,0,0,1,6.93,5.52.3.3,0,0,1,0,.1A6.15,6.15,0,0,1,21,8.74a6,6,0,0,1-.19,1.54.3.3,0,0,1,0,.1,7.23,7.23,0,0,1-6.88,5.26Z"/><path class="cls-2" d="M13.81,67.12a12.7,12.7,0,1,0,0,25.4,12.7,12.7,0,1,0,0-25.4Zm0,23.71a11,11,0,1,1,0-22,11,11,0,1,1,0,22Zm0-19.6a8.59,8.59,0,1,0,8.7,8.59,8.64,8.64,0,0,0-8.7-8.59Zm0,15.61a7,7,0,1,1,7.12-7,7.07,7.07,0,0,1-7.12,7Z"/><path class="cls-2" d="M5.92,88.57,3.41,93.4a4.76,4.76,0,0,1,6.33,3.23l2.7-5.17,1.3.09L9.35,99.91l-.1.21-1.06-.54.11-.2a3.5,3.5,0,0,0-1.53-4.73A3.57,3.57,0,0,0,2,96.16l-.1.2L.81,95.82l.1-.2L5,87.73Z"/><path class="cls-2" d="M22.19,87.63l3,5.77a4.76,4.76,0,0,0-3.9.2,4.69,4.69,0,0,0-2.43,3l-3-5.79-1.06.54,4.45,8.52.11.2,1.06-.54-.11-.2a3.5,3.5,0,0,1,1.53-4.73,3.58,3.58,0,0,1,4.8,1.51l.1.21,1.06-.54-.11-.2-4.45-8.52Z"/><path class="cls-2" d="M23.88,40h3.45a.52.52,0,0,0,.49-.52V39a.52.52,0,0,0-.49-.52H15.05V35.32a.51.51,0,0,0-.49-.52h-.49a.51.51,0,0,0-.49.52v3.12H1.29A.51.51,0,0,0,.8,39v.52a.51.51,0,0,0,.49.52H5.22L.34,49.87a4.53,4.53,0,0,0,0,.52,5.58,5.58,0,0,0,5.4,5.73,5.58,5.58,0,0,0,5.41-5.73v-.52L6.69,40h6.88V59.25H7.67a.51.51,0,0,0-.49.52v.51a.51.51,0,0,0,.49.52H20.93a.5.5,0,0,0,.49-.52v-.51a.5.5,0,0,0-.49-.52H15V40H22.4l-4.87,9.87a4.53,4.53,0,0,0,0,.52,5.58,5.58,0,0,0,5.4,5.73,5.58,5.58,0,0,0,5.41-5.73v-.52ZM5.71,54.56a4,4,0,0,1-3.89-3.65H9.6a4,4,0,0,1-3.89,3.65Zm3.6-5.21H2l4-7.72Zm13.85-7.72,3.34,7.72H19.2ZM22.9,54.56A4,4,0,0,1,19,50.91H26.8a4,4,0,0,1-3.9,3.65Z"/><path class="cls-2" d="M23.3,119.13h-18a4,4,0,0,0-4,4v2a13,13,0,1,0,26,0v-2a4,4,0,0,0-4-4Zm2,6a11,11,0,1,1-22,0v-2a2,2,0,0,1,2-2h18a2,2,0,0,1,2,2Z"/><path class="cls-2" d="M12.31,127.12a2,2,0,0,0,4,0,2,2,0,0,0-4,0Z"/><path class="cls-2" d="M13.78,106.13a8.19,8.19,0,0,0-7.47,8.27v1.73a1,1,0,0,0,2,0v-1.75a6.18,6.18,0,0,1,5.82-6.25,6,6,0,0,1,6.18,6v6h2v-6a8,8,0,0,0-8.53-8Z"/></g></g></svg>