<svg xmlns="http://www.w3.org/2000/svg" viewBox="0 0 384.5 390"><defs><style>.cls-1{fill:#7ed1e9;}.cls-2{fill:#fff;}.cls-3{fill:#fca844;}.cls-4{fill:#ff8585;}.cls-5{fill:#68bef2;}.cls-6{fill:#f76e6c;}.cls-7{fill:#55b1f4;}.cls-8{fill:#f8d055;}</style></defs><title>资源 390</title><g id="图层_2" data-name="图层 2"><g id="图层_1-2" data-name="图层 1"><rect class="cls-1" x="197.67" y="302" width="88" height="88" rx="36"/><path class="cls-2" d="M250.22,345.79,238.9,357.28l-5.78-5.85a1.18,1.18,0,0,0-1.67,0,1.26,1.26,0,0,0,0,1.7l6.63,6.7a1.15,1.15,0,0,0,1.64,0l12.14-12.34a1.2,1.2,0,0,0,0-1.7,1.14,1.14,0,0,0-1.64,0Zm4.34-6.37H228.78a1.21,1.21,0,0,0,0,2.41h25.78a1.21,1.21,0,0,0,0-2.41Z"/><path class="cls-2" d="M261.66,342.69v-9.34a1.66,1.66,0,0,0-1.63-1.67H223.3a1.65,1.65,0,0,0-1.63,1.67v29.89a3.72,3.72,0,0,0,3.67,3.76H258a3.73,3.73,0,0,0,3.68-3.76V342.93c0-.08,0-.16,0-.24Zm-2.34,19.81a2.08,2.08,0,0,1-2.05,2.1H226.06a2.08,2.08,0,0,1-2.05-2.1V336.18c0-2.1,0-2.1,2.05-2.1h31.21c2.05,0,2.05,0,2.05,2.1Zm-25-36.3a1.17,1.17,0,1,0-2.34,0v5.48h2.34Zm17.91,0a1.18,1.18,0,1,0-2.35,0v5.48h2.35Z"/><rect class="cls-3" x="296.5" width="88" height="88" rx="36"/><path class="cls-2" d="M348.75,47h-19.7c-1,0-1.31.31-1.31,1.24a1.37,1.37,0,0,0,1.31,1.24h20a1.38,1.38,0,0,0,1.31-1.24A1.67,1.67,0,0,0,348.75,47Zm0,6.82h-19.7a1.24,1.24,0,1,0,0,2.48h20A1.38,1.38,0,0,0,350.39,55a2.17,2.17,0,0,0-1.64-1.24ZM355,36.4a1.38,1.38,0,0,0-1.32,1.24V61.52H324.45c-.32,0-.32,0-.32-.31V26.48h19a1.38,1.38,0,0,0,1.31-1.24A1.38,1.38,0,0,0,343.17,24h-19c-1.65,0-2.63,1.24-2.63,3.1V61.21A2.86,2.86,0,0,0,324.45,64h28.89c1.65,0,3-.93,3-2.48V37.64A1.38,1.38,0,0,0,355,36.4Zm4.26-11.78a1.28,1.28,0,0,0-2,0L348.42,33l-3.61-3.72a1.28,1.28,0,0,0-2,0,1.12,1.12,0,0,0,0,1.86l4.92,4.65a1.26,1.26,0,0,0,1,.31,1.24,1.24,0,0,0,1-.31l9.52-9a2.48,2.48,0,0,0,0-2.17Zm-20,7.44H329.05a1.24,1.24,0,1,0,0,2.48h10.18a1.38,1.38,0,0,0,1.31-1.24,1.17,1.17,0,0,0-1.31-1.24Zm9.52,6.82h-19.7a1.24,1.24,0,1,0,0,2.48h20a1.38,1.38,0,0,0,1.31-1.24c0-.62-1-1.24-1.64-1.24Z"/><rect class="cls-1" y="0.5" width="88" height="88" rx="36"/><path class="cls-2" d="M52.56,44.29,41.24,55.78l-5.79-5.85a1.18,1.18,0,0,0-1.67,0,1.26,1.26,0,0,0,0,1.7l6.64,6.7a1.08,1.08,0,0,0,.82.33,1.14,1.14,0,0,0,.82-.36L54.2,46a1.2,1.2,0,0,0,0-1.7,1.14,1.14,0,0,0-1.64,0Zm4.33-6.37H31.11a1.21,1.21,0,0,0,0,2.41H56.89a1.21,1.21,0,0,0,0-2.41Z"/><path class="cls-2" d="M64,41.19V31.85a1.65,1.65,0,0,0-1.63-1.67H25.64A1.66,1.66,0,0,0,24,31.85V61.74a3.72,3.72,0,0,0,3.67,3.76H60.33A3.72,3.72,0,0,0,64,61.74V41.43a1.93,1.93,0,0,0,0-.24ZM61.66,61a2.08,2.08,0,0,1-2,2.1H28.39A2.08,2.08,0,0,1,26.34,61V34.68c0-2.1,0-2.1,2.05-2.1H59.61c2,0,2,0,2,2.1Zm-25-36.3a1.17,1.17,0,1,0-2.34,0v5.48h2.34Zm17.91,0a1.17,1.17,0,1,0-2.34,0v5.48h2.34Z"/><rect class="cls-4" x="197.67" width="88" height="88" rx="36"/><path class="cls-2" d="M250.7,29.86V28.55a.59.59,0,0,1,.58-.61.59.59,0,0,1,.57.61v1.31h1.25a.61.61,0,0,1,0,1.21h-1.25v1.31a.59.59,0,0,1-.57.61.59.59,0,0,1-.58-.61V31.07h-1.25a.61.61,0,0,1,0-1.21ZM230.4,55.31h18.66a1,1,0,0,1,1,1v3a2.46,2.46,0,1,0,4.9,0V26h-22a2.57,2.57,0,0,0-2.5,2.63Zm-1.75,2h-3.06v2a2.57,2.57,0,0,0,2.5,2.63h20.79a4.79,4.79,0,0,1-.78-2.63v-2Zm24,6.67H228.09a4.54,4.54,0,0,1-4.42-4.65v-3a1,1,0,0,1,1-1h3.85V28.65A4.54,4.54,0,0,1,232.9,24h24.63a4.25,4.25,0,0,1,4.14,4.34v2.73a1.58,1.58,0,0,1-1.54,1.62h-3.27V59.35A4.56,4.56,0,0,1,252.61,64Zm4.25-38v4.65h2.88V28.34A2.27,2.27,0,0,0,257.53,26Zm-8.24,12.51-.49-1.36h-4.2l-.49,1.39a5.17,5.17,0,0,1-.5,1.1.76.76,0,0,1-.67.28,1,1,0,0,1-.69-.3,1,1,0,0,1-.31-.69,1.9,1.9,0,0,1,.07-.46c0-.16.13-.37.24-.66l2.64-7c.07-.2.17-.44.27-.73a3.82,3.82,0,0,1,.34-.7,1.47,1.47,0,0,1,.47-.46,1.63,1.63,0,0,1,1.45,0,1.45,1.45,0,0,1,.47.45,2.55,2.55,0,0,1,.31.59l.31.84,2.7,7a3.75,3.75,0,0,1,.32,1.17,1,1,0,0,1-.3.69,1,1,0,0,1-.72.31.94.94,0,0,1-.43-.09,1,1,0,0,1-.29-.25,2.36,2.36,0,0,1-.26-.49l-.24-.58Zm-4.14-3h3.09L246,31Zm-10.9,7.87h18.18a.86.86,0,0,1,0,1.72H233.58a.86.86,0,0,1,0-1.72Zm0-5.75h3.65a.86.86,0,0,1,0,1.71h-3.65a.86.86,0,0,1,0-1.71Zm0,11.51h18.18a.86.86,0,0,1,0,1.72H233.58a.86.86,0,0,1,0-1.72Z"/><rect class="cls-5" x="98.83" width="88" height="88" rx="36"/><path class="cls-2" d="M150.92,62.47a1.26,1.26,0,0,1-1.25,1.28h-20c-3.43,0-6.86-2.34-6.86-5.77V30.51a7.23,7.23,0,0,1,6.86-6.72H153.4c3.43,0,5.61,3.27,5.61,6.72v1.25a1.23,1.23,0,1,1-2.45,0V30.51c0-2.06-1.09-4.26-3.16-4.26H129.69a4.84,4.84,0,0,0-4.4,4.26V58c0,2.06,2.34,3.22,4.4,3.22h20a1.28,1.28,0,0,1,1.25,1.27ZM149.67,35a1.23,1.23,0,0,0-1.25-1.23H132.2a1.23,1.23,0,1,0,0,2.46h16.22A1.22,1.22,0,0,0,149.67,35Zm-4.45,8.69A1.24,1.24,0,0,0,144,42.49H131.52a1.23,1.23,0,0,0,0,2.46H144a1.24,1.24,0,0,0,1.23-1.23Zm-13,7.56a1.23,1.23,0,1,0,0,2.45h7.48a1.23,1.23,0,1,0,0-2.45ZM162.81,40.5V58.39c0,.54.12,1.07-.21,1.51l-3,3.31a2.39,2.39,0,0,1-1.93,1,2.48,2.48,0,0,1-2-1h0l-3.41-3.33a2.84,2.84,0,0,1-.79-1.51V40.5a4.75,4.75,0,0,1,4.34-4.24h3.75c2.06,0,3.15,2.18,3.15,4.24Zm-8.8,2h6.23v-2c0-.69.09-1.78-.6-1.78h-3.76A2.5,2.5,0,0,0,154,40.5Zm6.23,15.9V45H154V58.37l3.43,3.34h-.17Z"/><rect class="cls-1" y="101.35" width="88" height="88" rx="36"/><path class="cls-2" d="M52.56,145.14,41.24,156.63l-5.79-5.85a1.18,1.18,0,0,0-1.67,0,1.26,1.26,0,0,0,0,1.7l6.64,6.7a1.08,1.08,0,0,0,.82.33,1.14,1.14,0,0,0,.82-.36L54.2,146.82a1.21,1.21,0,0,0,0-1.71,1.14,1.14,0,0,0-1.64,0Zm4.33-6.36H31.11a1.2,1.2,0,0,0,0,2.4H56.89a1.2,1.2,0,0,0,0-2.4Z"/><path class="cls-2" d="M64,142V132.7A1.65,1.65,0,0,0,62.36,131H25.64A1.66,1.66,0,0,0,24,132.7v29.89a3.72,3.72,0,0,0,3.67,3.76H60.33A3.72,3.72,0,0,0,64,162.59V142.28a1.93,1.93,0,0,0,0-.24Zm-2.33,19.81a2.08,2.08,0,0,1-2,2.1H28.39a2.08,2.08,0,0,1-2.05-2.1V135.53c0-2.1,0-2.1,2.05-2.1H59.61c2,0,2,0,2,2.1Zm-25-36.3a1.17,1.17,0,1,0-2.34,0V131h2.34Zm17.91,0a1.17,1.17,0,1,0-2.34,0V131h2.34Z"/><rect class="cls-3" x="296.5" y="98" width="88" height="88" rx="36"/><path class="cls-2" d="M333.38,126h14.24a.94.94,0,0,0,1-.91v-3.2a.94.94,0,0,0-1-.91H333.38a.94.94,0,0,0-1,.91v3.2a.94.94,0,0,0,1,.91Zm7.12,3.2c-7.7,0-11.88,6.85-11.88,6.85s3.9,6.84,11.88,6.84,11.88-6.84,11.88-6.84-4.18-6.85-11.88-6.85Zm0,11.64a4.8,4.8,0,1,1,5-4.79,4.9,4.9,0,0,1-5,4.79Zm17.1-17.12H350v1.37a1.58,1.58,0,0,1-.28.91h7.4v34.7H323.88V126h7.4a2.06,2.06,0,0,1-.28-.91v-1.37h-7.6a1.87,1.87,0,0,0-1.9,1.83v35.6a1.87,1.87,0,0,0,1.9,1.83h34.2a1.87,1.87,0,0,0,1.9-1.83v-35.6a1.87,1.87,0,0,0-1.9-1.83Zm-3.33,21.91H326.73v2.74h27.54Zm0,4.57H326.73V153h27.54Zm-27.54,7.3h12.35v-2.74H326.73Z"/><rect class="cls-6" x="197.67" y="102" width="88" height="88" rx="36"/><path class="cls-2" d="M249.7,131.86v-1.31a.59.59,0,0,1,.58-.61.59.59,0,0,1,.57.61v1.31h1.25a.61.61,0,0,1,0,1.21h-1.25v1.31a.59.59,0,0,1-.57.61.59.59,0,0,1-.58-.61v-1.31h-1.25a.61.61,0,0,1,0-1.21Zm-20.3,25.45h18.66a1,1,0,0,1,1,1v3a2.46,2.46,0,1,0,4.9,0V128h-22a2.57,2.57,0,0,0-2.5,2.63Zm-1.75,2h-3.06v2a2.57,2.57,0,0,0,2.5,2.63h20.79a4.79,4.79,0,0,1-.78-2.63v-2Zm24,6.67H227.09a4.54,4.54,0,0,1-4.42-4.65v-3a1,1,0,0,1,1-1h3.85V130.65A4.54,4.54,0,0,1,231.9,126h24.63a4.25,4.25,0,0,1,4.14,4.34v2.73a1.58,1.58,0,0,1-1.54,1.62h-3.27v26.66a4.56,4.56,0,0,1-4.25,4.65Zm4.25-38v4.65h2.88v-2.33a2.27,2.27,0,0,0-2.21-2.32Zm-8.24,12.51-.49-1.36h-4.2l-.49,1.39a5.17,5.17,0,0,1-.5,1.1.76.76,0,0,1-.67.28,1,1,0,0,1-.69-.3,1,1,0,0,1-.31-.69,1.9,1.9,0,0,1,.07-.46c0-.16.13-.37.24-.66l2.64-7c.07-.2.17-.44.27-.73a3.82,3.82,0,0,1,.34-.7,1.47,1.47,0,0,1,.47-.46,1.63,1.63,0,0,1,1.45,0,1.45,1.45,0,0,1,.47.45,2.55,2.55,0,0,1,.31.59l.31.84,2.7,7a3.75,3.75,0,0,1,.32,1.17,1,1,0,0,1-.3.69,1,1,0,0,1-.72.31.94.94,0,0,1-.43-.09,1,1,0,0,1-.29-.25,2.36,2.36,0,0,1-.26-.49l-.24-.58Zm-4.14-3h3.09L245,133Zm-10.9,7.87h18.18a.86.86,0,0,1,0,1.72H232.58a.86.86,0,0,1,0-1.72Zm0-5.75h3.65a.86.86,0,0,1,0,1.71h-3.65a.86.86,0,0,1,0-1.71Zm0,11.51h18.18a.86.86,0,0,1,0,1.72H232.58a.86.86,0,0,1,0-1.72Z"/><rect class="cls-7" x="98.83" y="102" width="88" height="88" rx="36"/><path class="cls-2" d="M150.92,164.47a1.26,1.26,0,0,1-1.25,1.28h-20c-3.43,0-6.86-2.34-6.86-5.77V132.51a7.23,7.23,0,0,1,6.86-6.72H153.4c3.43,0,5.61,3.27,5.61,6.72v1.25a1.23,1.23,0,1,1-2.45,0v-1.25c0-2.06-1.09-4.26-3.16-4.26H129.69a4.84,4.84,0,0,0-4.4,4.26V160c0,2.06,2.34,3.22,4.4,3.22h20a1.28,1.28,0,0,1,1.25,1.27ZM149.67,137a1.23,1.23,0,0,0-1.25-1.23H132.2a1.23,1.23,0,1,0,0,2.46h16.22a1.22,1.22,0,0,0,1.25-1.23Zm-4.45,8.69a1.24,1.24,0,0,0-1.23-1.23H131.52a1.23,1.23,0,0,0,0,2.46H144a1.24,1.24,0,0,0,1.23-1.23Zm-13,7.56a1.23,1.23,0,1,0,0,2.45h7.48a1.23,1.23,0,1,0,0-2.45Zm30.61-10.78v17.89c0,.54.12,1.07-.21,1.51l-3,3.31a2.39,2.39,0,0,1-1.93,1,2.48,2.48,0,0,1-2-1h0l-3.41-3.33a2.84,2.84,0,0,1-.79-1.51V142.5a4.75,4.75,0,0,1,4.34-4.24h3.75c2.06,0,3.15,2.18,3.15,4.24Zm-8.8,2h6.23v-2c0-.69.09-1.78-.6-1.78h-3.76a2.5,2.5,0,0,0-1.9,1.78Zm6.23,15.9V147H154v13.33l3.43,3.34h-.17Z"/><rect class="cls-4" x="98.83" y="202" width="88" height="88" rx="36"/><path class="cls-2" d="M151.08,249h-19.7c-1,0-1.31.31-1.31,1.24a1.38,1.38,0,0,0,1.31,1.24h20a1.37,1.37,0,0,0,1.31-1.24,1.66,1.66,0,0,0-1.64-1.24Zm0,6.82h-19.7a1.24,1.24,0,1,0,0,2.48h20a1.37,1.37,0,0,0,1.31-1.24,2.16,2.16,0,0,0-1.64-1.24Zm6.24-17.37a1.37,1.37,0,0,0-1.31,1.24v23.88H126.79c-.33,0-.33,0-.33-.31V228.48h19a1.24,1.24,0,1,0,0-2.48h-19c-1.64,0-2.63,1.24-2.63,3.1v34.11a2.87,2.87,0,0,0,3,2.79h28.89c1.64,0,2.95-.93,2.95-2.48V239.64a1.37,1.37,0,0,0-1.31-1.24Zm4.27-11.78a1.28,1.28,0,0,0-2,0L150.75,235l-3.61-3.72a1.28,1.28,0,0,0-2,0,1.13,1.13,0,0,0,0,1.86l4.93,4.65a1.23,1.23,0,0,0,1,.31,1.26,1.26,0,0,0,1-.31l9.52-9a2.48,2.48,0,0,0,0-2.17Zm-20,7.44H131.38a1.24,1.24,0,1,0,0,2.48h10.18a1.37,1.37,0,0,0,1.31-1.24,1.17,1.17,0,0,0-1.31-1.24Zm9.52,6.82h-19.7a1.24,1.24,0,1,0,0,2.48h20a1.37,1.37,0,0,0,1.31-1.24c0-.62-1-1.24-1.64-1.24Z"/><rect class="cls-6" y="202" width="88" height="88" rx="36"/><path class="cls-2" d="M36.1,247.37a12.24,12.24,0,1,1,6.73,2A16.62,16.62,0,0,0,26.18,266H23a19.78,19.78,0,0,1,13.1-18.6Zm6.73-1.17a9,9,0,1,0-9-9,9,9,0,0,0,9,9Zm15.78,2.92a5.93,5.93,0,0,1,2.82.52,6.07,6.07,0,0,1,3.19,3.79,7.54,7.54,0,0,1-1,6.78,16.06,16.06,0,0,1-2.68,2.89,51.19,51.19,0,0,1-4.31,3.35,2.84,2.84,0,0,1-3.33,0,45.19,45.19,0,0,1-5-3.93A13.9,13.9,0,0,1,46,259.9a7.27,7.27,0,0,1-1.16-3.31A7.15,7.15,0,0,1,46.57,251a5.51,5.51,0,0,1,4.08-1.91,6.22,6.22,0,0,1,3.2.65,5.47,5.47,0,0,1,1.07.73,5.61,5.61,0,0,1,3.69-1.38Zm.2,11.6A13.29,13.29,0,0,0,61,258.39a4.33,4.33,0,0,0,.6-4A2.87,2.87,0,0,0,60,252.5a3,3,0,0,0-1.37-.2,2.45,2.45,0,0,0-1.77.71l-.35.35-.48.51-1.2,1.26-1.15-1.31-.08-.09,0,0-.2-.23a3.66,3.66,0,0,0-1-.88,3.19,3.19,0,0,0-1.62-.28,2.33,2.33,0,0,0-1.79.84,4.31,4.31,0,0,0-.22,5.05,10.86,10.86,0,0,0,1.74,2,41.43,41.43,0,0,0,4.45,3.52,47.55,47.55,0,0,0,3.89-3Z"/><rect class="cls-8" x="296.5" y="199" width="88" height="88" rx="36"/><path class="cls-2" d="M348.75,246h-19.7c-1,0-1.31.31-1.31,1.24a1.37,1.37,0,0,0,1.31,1.24h20a1.38,1.38,0,0,0,1.31-1.24,1.67,1.67,0,0,0-1.64-1.24Zm0,6.82h-19.7a1.24,1.24,0,1,0,0,2.48h20a1.38,1.38,0,0,0,1.31-1.24,2.17,2.17,0,0,0-1.64-1.24ZM355,235.4a1.38,1.38,0,0,0-1.32,1.24v23.88H324.45c-.32,0-.32,0-.32-.31V225.48h19a1.24,1.24,0,1,0,0-2.48h-19c-1.65,0-2.63,1.24-2.63,3.1v34.11a2.86,2.86,0,0,0,2.95,2.79h28.89c1.65,0,3-.93,3-2.48V236.64A1.38,1.38,0,0,0,355,235.4Zm4.26-11.78a1.28,1.28,0,0,0-2,0L348.42,232l-3.61-3.72a1.28,1.28,0,0,0-2,0,1.12,1.12,0,0,0,0,1.86l4.92,4.65a1.26,1.26,0,0,0,1,.31,1.24,1.24,0,0,0,1-.31l9.52-9a2.48,2.48,0,0,0,0-2.17Zm-20,7.44H329.05a1.24,1.24,0,1,0,0,2.48h10.18a1.38,1.38,0,0,0,1.31-1.24,1.17,1.17,0,0,0-1.31-1.24Zm9.52,6.82h-19.7a1.24,1.24,0,1,0,0,2.48h20a1.38,1.38,0,0,0,1.31-1.24c0-.62-1-1.24-1.64-1.24Z"/><rect class="cls-3" x="197.67" y="202" width="88" height="88" rx="36"/><path class="cls-2" d="M251.52,248.45a11.84,11.84,0,0,0,10.87-11.72,14,14,0,0,0-.54-3.28.86.86,0,0,0-.81-.81,2.45,2.45,0,0,0-1.36.27l-2.18,2.18a3.85,3.85,0,1,1-5.44-5.45l2.18-2.19a1.2,1.2,0,0,0,.27-1.36,1,1,0,0,0-.81-.54,13.32,13.32,0,0,0-3.27-.55,11.62,11.62,0,0,0-11.69,11.73,4.56,4.56,0,0,0,.28,1.91l-1.63,1.63-7.34-7.63a3.43,3.43,0,0,0-.82-4.37l-2.72-2.72a1.3,1.3,0,0,0-1.9,0l-3.54,3.54a1.33,1.33,0,0,0,0,1.91l2.72,2.73a3.48,3.48,0,0,0,2.72,1.09,3.44,3.44,0,0,0,1.63-.27l7.34,7.36L223,253.64a8.1,8.1,0,0,0-2.18,5.45,7.66,7.66,0,0,0,2.18,5.46,8.07,8.07,0,0,0,5.43,2.18,6.83,6.83,0,0,0,5.44-2.46l9-9.54,10.6,10.63a5,5,0,0,0,3.81,1.64,5.38,5.38,0,0,0,3.81-1.64,5,5,0,0,0,1.63-3.81,5.41,5.41,0,0,0-1.63-3.82Zm-24.19-16.63a1.33,1.33,0,0,1-1.91,0l-1.63-1.64,1.91-1.91,1.9,1.91a1.33,1.33,0,0,1-.27,1.64Zm4.89,30.82a5.42,5.42,0,0,1-7.34,0,5,5,0,0,1-1.63-3.82,4.71,4.71,0,0,1,1.36-3.55L241.19,240a18.76,18.76,0,0,0,.27-3.27,9.19,9.19,0,0,1,9.25-9.28l-.55.55a6.45,6.45,0,0,0,0,9,6.56,6.56,0,0,0,4.62,1.91A6.36,6.36,0,0,0,259.4,237l.55-.55a9.13,9.13,0,0,1-9,9.28,6.59,6.59,0,0,1-2.18-.28H248Zm26.64.81a2.6,2.6,0,0,1-3.8,0L245,253.36l3.8-3.81,10.06,10.09a2.62,2.62,0,0,1,0,3.81Zm-30.45-7.09a2.73,2.73,0,1,0,2.72,2.73,2.93,2.93,0,0,0-2.72-2.73Z"/><rect class="cls-1" x="296.5" y="300" width="88" height="88" rx="36"/><path class="cls-2" d="M333.87,361.44h-5.95a2.59,2.59,0,0,1-2.57-2.37v-29.3a1.88,1.88,0,0,1,2-1.95h23.29c3,0,2.74,2.4,2.74,2.4l0,3.38a1.5,1.5,0,0,0,1.44,1.38c1.18,0,1.36-1.31,1.36-1.31s0-.59-.08-4.59-4.42-4.05-4.42-4.05l-24.18,0a4.6,4.6,0,0,0-5,5.07s0,26,0,29.74,4,4.44,4,4.44l7.46,0a1.22,1.22,0,0,0,1.14-1.31,1.56,1.56,0,0,0-1.24-1.53Zm17.07-10.1s-.35-.23-.35-1.12v-4.44s-.37-1.16-1.33-1.16a1.43,1.43,0,0,0-1.43,1.16v5.68a1.8,1.8,0,0,0,.54,1.28c.59.62,5.53,5.61,5.53,5.61a1.54,1.54,0,0,0,1.73-.32c.79-.79-.12-1.85-.12-1.85Zm-.37-12.21a13.94,13.94,0,1,0,13.93,13.93,13.93,13.93,0,0,0-13.93-13.93Zm0,25.17a11.24,11.24,0,1,1,11.24-11.24,11.25,11.25,0,0,1-11.24,11.24Zm-16.33-22.5h-3.78a1.11,1.11,0,0,0-1.11,1.11v.6a1.11,1.11,0,0,0,1.11,1.11h3.78a1.11,1.11,0,0,0,1.11-1.11v-.6a1.13,1.13,0,0,0-1.11-1.11Zm-3.78-8.4a1.11,1.11,0,0,0-1.11,1.11v.6a1.11,1.11,0,0,0,1.11,1.11h17.81a1.11,1.11,0,0,0,1.11-1.11v-.6a1.11,1.11,0,0,0-1.11-1.11Z"/><rect class="cls-8" y="302" width="88" height="88" rx="36"/><path class="cls-2" d="M52.25,349H32.55c-1,0-1.31.31-1.31,1.24a1.37,1.37,0,0,0,1.31,1.24h20a1.38,1.38,0,0,0,1.31-1.24A1.67,1.67,0,0,0,52.25,349Zm0,6.82H32.55a1.24,1.24,0,1,0,0,2.48h20A1.38,1.38,0,0,0,53.89,357a2.17,2.17,0,0,0-1.64-1.24Zm6.24-17.37a1.38,1.38,0,0,0-1.32,1.24v23.88H28c-.32,0-.32,0-.32-.31V328.48h19a1.24,1.24,0,1,0,0-2.48h-19C26,326,25,327.24,25,329.1v34.11A2.86,2.86,0,0,0,28,366H56.84c1.65,0,3-.93,3-2.48V339.64a1.38,1.38,0,0,0-1.31-1.24Zm4.26-11.78a1.28,1.28,0,0,0-2,0L51.92,335l-3.61-3.72a1.28,1.28,0,0,0-2,0,1.12,1.12,0,0,0,0,1.86l4.92,4.65a1.26,1.26,0,0,0,1,.31,1.24,1.24,0,0,0,1-.31l9.52-9a2.48,2.48,0,0,0,0-2.17Zm-20,7.44H32.55a1.24,1.24,0,1,0,0,2.48H42.73A1.38,1.38,0,0,0,44,335.3a1.17,1.17,0,0,0-1.31-1.24Zm9.52,6.82H32.55a1.24,1.24,0,1,0,0,2.48h20a1.38,1.38,0,0,0,1.31-1.24c0-.62-1-1.24-1.64-1.24Z"/><rect class="cls-4" x="98.83" y="302" width="88" height="88" rx="36"/><path class="cls-2" d="M142.88,349.11a1.38,1.38,0,0,0,1.84-.48,1.25,1.25,0,0,0,.12-1,1.28,1.28,0,0,0-.63-.78c-5.12-2.81-7.85-5.94-8.59-9.84a7.69,7.69,0,0,1,1.65-6.16,7.17,7.17,0,0,1,5.69-2.29c3.82,0,6.55,2,7.3,5.44a8.5,8.5,0,0,1-5.17,9.55,1.33,1.33,0,0,0-.71.71,1.26,1.26,0,0,0,0,1,1.37,1.37,0,0,0,1.77.67,11.08,11.08,0,0,0,6.72-12.45c-.79-3.62-3.82-7.49-9.93-7.49a9.82,9.82,0,0,0-7.76,3.22,10.2,10.2,0,0,0-2.23,8.27c1.18,6.19,6.22,9.6,9.91,11.62Z"/><path class="cls-2" d="M127.31,354.32a1.35,1.35,0,0,0,1.71-.78c.78-2.1,3.7-4.17,5.61-5.29a9.46,9.46,0,0,0,16.84,0c1.92,1.12,4.83,3.19,5.61,5.3a1.34,1.34,0,0,0,1.71.78,1.29,1.29,0,0,0,.76-.65,1.22,1.22,0,0,0,.06-1c-1.51-4.11-7.81-7.23-8.08-7.36a1.37,1.37,0,0,0-1.05-.07,1.31,1.31,0,0,0-.78.68c-1.49,3.1-3.89,4.88-6.61,4.88s-5.22-1.82-6.69-4.88a1.29,1.29,0,0,0-.78-.68,1.37,1.37,0,0,0-1.05.07c-.27.13-6.57,3.25-8.08,7.36a1.22,1.22,0,0,0,.06,1,1.29,1.29,0,0,0,.76.65Zm35.18,9.1H123.18a1.4,1.4,0,0,0-1,.37,1.34,1.34,0,0,0-.4.92,1.32,1.32,0,0,0,.4.92,1.4,1.4,0,0,0,1,.37h39.31a1.36,1.36,0,0,0,.94-.37,1.28,1.28,0,0,0,.4-.92,1.26,1.26,0,0,0-.4-.92,1.36,1.36,0,0,0-.94-.37ZM124.09,362a157.38,157.38,0,0,1,18.51,1.15H143A157.6,157.6,0,0,1,161.49,362a1.36,1.36,0,0,0,.94-.37,1.31,1.31,0,0,0,.4-.92,1.31,1.31,0,0,0-1.34-1.29c-5.81,0-11.19.39-14.71.72,2.61-1.29,7-2.34,13.7-2.57a1.34,1.34,0,0,0,.93-.4,1.31,1.31,0,0,0,.37-.93,1.33,1.33,0,0,0-1.39-1.25c-10.78.36-15.51,2.71-17.6,4.74-2.07-2-6.8-4.37-17.59-4.74a1.38,1.38,0,0,0-1,.34,1.27,1.27,0,0,0-.43.91,1.3,1.3,0,0,0,.36.93,1.36,1.36,0,0,0,.93.4c6.68.22,11.1,1.28,13.7,2.57q-7.34-.7-14.71-.72a1.31,1.31,0,0,0-1.34,1.29,1.31,1.31,0,0,0,.4.92,1.36,1.36,0,0,0,.94.37Z"/></g></g></svg>